<svg xmlns="http://www.w3.org/2000/svg" viewBox="0 0 48 48"><defs><style>.cls-1{fill:#e6b31e;}</style></defs><title>faviconSBgialloRisorsa 5</title><g id="Livello_2" data-name="Livello 2"><g id="Livello_1-2" data-name="Livello 1"><circle cx="24" cy="24" r="24"/></g><g id="Livello_2-2" data-name="Livello 2"><path class="cls-1" d="M44.47,17.2c-.27-.58-2.25-.23-2.75-.24l-2.49,0c-.61,0-1.27,0-1.89,0-.3,0-.72-.51-.84-1.06a13.16,13.16,0,0,0-.69-2.21A13.74,13.74,0,0,0,21.67,5.25c.38-.51.85-1.23.24-1.75a3,3,0,0,0-2.42-.16c0-.84.13-1.55-.31-1.59s-.3.83-.32,2c0,.48.15,2-.07,2.12-.42.2-1.61.64-2.06.84A16,16,0,0,0,14.4,8,17.69,17.69,0,0,0,6.66,23v0a15.29,15.29,0,0,0,.42,3.15C6.49,25.69,5.51,25,5,25.86a3,3,0,0,0,0,2.29c-.55,0-1.11,0-1.66.07-.3,0-1,.21-.42.49a6.14,6.14,0,0,0,1.82.06c.77,0,1.53.13,2.29.24,1.47.22,1.74,1.56,2.38,2.75a22.52,22.52,0,0,0,2.58,3.9A21.54,21.54,0,0,0,30.14,43a9.33,9.33,0,0,0,2.93-.49c.61-.3.33-.54-.21-.58-.71,0-1.45,0-2.15,0,.18-2.82,0-5.69.05-8.52s.11-5.62,0-8.41a.36.36,0,0,1,.37-.37c1,0,2-.05,3-.05-.49.77-1.09,1.52-1.53,2.31s-.1,1.05.41.43c.26-.32.45-.7.7-1a5.56,5.56,0,0,1,1.73-1.65,1.8,1.8,0,0,1,.71-.14c.17,0,.22,0,.29.34A8.26,8.26,0,0,1,36.5,27c0,.59,0,1.18,0,1.77,0,.41-.13,1.15.23,1.5a.19.19,0,0,0,.21.05.18.18,0,0,0,.12-.17,7.54,7.54,0,0,0,.05-1.33,16.61,16.61,0,0,0,.12-1.78,8.4,8.4,0,0,1,.2-2.52c.23-.34,1.46-.07,1.84-.05s2.26.32,2.45,0c.43-.61-.6-.56-1.11-.6l-2-.15a4.89,4.89,0,0,1-1.11-.14c-.22-.15-.09,0-.17-.46a3.09,3.09,0,0,1,.42-2c.68-1.08,2.87-2.41,4.17-1.91.58.22.82.95,1.44,1.11s1-.29,1.07-.9A6.62,6.62,0,0,0,44.47,17.2ZM31,8.86a13.43,13.43,0,0,1,3.48,3.91,16.94,16.94,0,0,1,1.3,3.76.3.3,0,0,1-.29.39c-1.17,0-2.08,0-3.25,0-.86,0-1.93.06-2.8.06s-1.77.07-2.6.07c-.66,0-.43-.19-.43-.87,0-1-.06-2-.09-3,0-.36-.15-1.73.08-2a6.9,6.9,0,0,1,1.9,0,8.79,8.79,0,0,0,1.39-.06,2,2,0,0,0,.83-.16c.75-.58-.74-.54-1-.54-.64,0-1.26,0-1.9,0l-1,0c-.39,0-.35-.07-.35-.3,0-.74,0-2.06,0-2.56a.44.44,0,0,0-.6-.44c-.45.15-.28,1.94-.28,2.34,0,.82.16,1-.59.93a7.2,7.2,0,0,1-1.76-.12,6.93,6.93,0,0,1-.8-1.18c-.29-.49-.63-1-1-1.47s-.95-1.26-.32-1.23C24.72,6.13,28,6.59,31,8.86ZM19.78,4.8c0-.69.47-.43,1.12-.42-.29.29-.66,1.17-1.13,1.22C19.78,5.33,19.78,5.07,19.78,4.8ZM19.7,10c.06-1,0-2.07.07-3.11A22.06,22.06,0,0,0,22,10.13a.1.1,0,0,1-.09.15c-.68,0-1.36.05-2.05.08a.17.17,0,0,1-.18-.17A1.77,1.77,0,0,1,19.7,10Zm-12,18.21A5.79,5.79,0,0,1,5.91,28a3.24,3.24,0,0,1,0-1.32c.42.15.79.62,1.16.87C7.1,27.62,7.84,28.17,7.67,28.17Zm.59-1.77a25.86,25.86,0,0,1-.36-6.15A15.64,15.64,0,0,1,10.16,14a16.71,16.71,0,0,1,8.67-7c-.2,2.14,0,4.38-.09,6.53,0,1.3.1,2.28.11,3.57s0,2.76,0,4c0,.77-.55.54-1.27.56-1.08,0-2.15,0-3.23.1-.32,0-.83,0-1.17,0s-.23-.06-.27-.52c0-.66-.11-1.34-.11-2,0-.32.14-1.27-.47-1.09-.36.1-.25,1.71-.25,2s.13,1.33-.06,1.5a7.88,7.88,0,0,1-1.54.07c-.37,0-1.77.09-1.45.52A10.13,10.13,0,0,0,12,22.4a16.65,16.65,0,0,1,0,1.73c-.13.66-.74.84-1.26,1.24-.49-.27-2,1.33-2.4,1.41A1.72,1.72,0,0,1,8.26,26.4Zm3.51-.9a.12.12,0,0,1,.2.09c0,.75.12,1.53.11,2.28a.41.41,0,0,1-.41.39c-.41,0-.84-.08-1.25-.09-.26,0-1.62.18-1.8-.11A25.57,25.57,0,0,1,11.77,25.5ZM27.19,42A20.89,20.89,0,0,1,9.27,29.32a.16.16,0,0,1,.16-.22c2.24.16,4.54,0,6.78,0,1.18,0,2.35,0,3.53,0a19.47,19.47,0,0,1,3-.09c.88.13.58,1.11.58,1.82s0,1.19.05,1.78a3.43,3.43,0,0,1-.17,1.47c-.22.33-1.14.29-1.69.33l-.11,0c-.4,0-.63.1-1,.13a.37.37,0,0,0-.35.3h0a.21.21,0,0,0,.19.26c.45,0,1,0,1.41,0l1.37,0a.28.28,0,0,1,.29.28c0,.6,0,1.21,0,1.81v1c0,.71,0,1.11.54.62s.31-1.17.34-1.78.09-1.09.09-1.64a.29.29,0,0,1,.28-.28,5,5,0,0,1,1.89.09c.19.1.47.9.58,1.11.25.46.48.93.75,1.38s.92,1.17.72,1.85C28.19,40.5,27.05,40.89,27.19,42Zm1.26-.59c.73-1.11,1.54-1.89.81-3.26a12.77,12.77,0,0,0-1.48-2,.49.49,0,0,1,.38-.81,13.32,13.32,0,0,0,1.68-.08c-.12,2,0,3.94,0,5.9C29.84,41.79,28.94,41.43,28.45,41.41Zm6-17.74c-1.29.14-3-.21-4-.05s-.67,2.6-.63,3.6c.08,1.87,0,3.74,0,5.61,0,.4.09,1.17-.15,1.38s-1.13.11-1.45.13c-.58,0-3.64.23-3.88,0s-.15-.91-.14-1.45c0-.83.16-2.67.08-3.59-.15-1.61-2.37-1.22-3.58-1.17-1.62.06-3.24,0-4.86.05a10.27,10.27,0,0,1-2.35,0C12.81,28,13,27,13,26.41c0-.83,0-1.66-.08-2.48,0-.29,0-.69,0-1.1,0,0-.11-.32.54-.3s1.2,0,1.79,0,1.33,0,2,0c1.22,0,2.31.19,2.42-1.11.15-1.77.06-3.91,0-5.68,0-.77,0-1.53,0-2.29,0-.35-.25-1.9.1-2.17a5,5,0,0,1,2.07-.19c.76,0,1.5,0,2.27,0,.52,0,1.24,0,1.33.33a2.72,2.72,0,0,1,0,.91c0,.55-.05,1.1-.06,1.64a27.5,27.5,0,0,0,.07,2.87c.07.73.25,1,1,1,1.87.11,3.78-.05,5.66-.07l3,0c1,0,1.08-.05,1.07,1.07a9.16,9.16,0,0,1-.6,2.93C35.38,22.35,35.11,23.59,34.41,23.67Zm2.15,0a6,6,0,0,1-1,0,12.61,12.61,0,0,0,1-2.35A14.53,14.53,0,0,1,36.56,23.68Zm6.83-4.46c-.42-.22-.71-.71-1.14-1a1.84,1.84,0,0,0-2,0,16,16,0,0,0-2.57,1.89.17.17,0,0,1-.27-.14c0-.36,0-.73,0-1.09,0-.2-.2-1-.09-1.11s1.38,0,1.54,0c1.11,0,2.22,0,3.33.05.46,0,.92-.08,1.14.3A2.45,2.45,0,0,1,43.39,19.22Z"/></g></g></svg>